<svg width="1440" height="544" viewBox="0 0 1440 544" fill="none" xmlns="http://www.w3.org/2000/svg">
<g clip-path="url(#clip0_212_16580)" filter="url(#filter0_f_212_16580)">
<path opacity="0.15" d="M1374.19 236.88C1407.7 273.97 1434.88 338.451 1384.8 383.973C1379.63 388.666 1331.18 431.248 1258.3 425.96C1169.54 419.52 1151.34 349.812 1053.38 331.716C947.298 312.119 885.037 378.425 833.231 358.056C771.971 333.97 764.451 204.071 875.331 148.396C1008.91 81.3255 1284.08 137.151 1374.19 236.88Z" fill="#EBC136"/>
<path opacity="0.15" d="M539.245 428.639C570.307 409.569 604.155 371.148 583.134 332.285C580.966 328.278 560.262 291.654 511.679 282.834C452.505 272.09 423.162 315.52 355.092 310.996C281.375 306.096 257.688 251.301 218.971 256.114C173.189 261.806 135.627 347.21 193.513 403.149C263.248 470.538 455.723 479.917 539.245 428.639Z" fill="#EBC136"/>
<path opacity="0.15" d="M721.575 320.89C706.187 299.799 690.464 259.221 703.947 221.859C705.337 218.007 718.519 182.857 744.877 177.297C776.983 170.526 790.013 215.799 826.481 215.823C865.973 215.849 881.817 162.774 902.122 170.155C926.131 178.883 941.044 266.57 906.944 318.508C865.865 381.075 762.953 377.602 721.575 320.89Z" fill="#EBC136"/>
<path opacity="0.15" d="M709.467 273.802C726.285 263.124 744.622 241.633 733.277 219.936C732.107 217.699 720.931 197.254 694.654 192.363C662.649 186.407 646.745 210.693 609.923 208.218C570.047 205.538 557.27 174.943 536.322 177.661C511.55 180.876 491.171 228.62 522.448 259.828C560.128 297.423 664.247 302.514 709.467 273.802Z" fill="#EBC136"/>
<path opacity="0.15" d="M1433.62 247.365C1451.76 231.046 1471.7 198.494 1459.95 166.192C1458.74 162.861 1447.14 132.43 1419.17 125.595C1385.09 117.269 1367.7 153.965 1328.42 150.946C1285.89 147.678 1272.75 102.066 1250.34 106.534C1223.83 111.818 1201.28 183.751 1234.15 229.934C1273.76 285.569 1384.86 291.244 1433.62 247.365Z" fill="#8047F8"/>
<path opacity="0.15" d="M1445.61 376.852C1459.71 387.804 1475.15 409.725 1465.84 431.622C1464.88 433.88 1455.7 454.511 1433.82 459.261C1407.16 465.047 1393.73 440.312 1363.03 442.533C1329.79 444.938 1319.35 475.841 1301.86 472.922C1281.17 469.471 1263.84 420.932 1289.71 389.552C1320.88 351.749 1407.69 347.404 1445.61 376.852Z" fill="#8047F8"/>
<path opacity="0.15" d="M246.937 135.891C259.507 157.616 271.932 199.056 259.695 236.491C258.433 240.351 246.5 275.558 224.055 280.502C196.717 286.524 186.675 240.405 155.792 239.442C122.347 238.4 107.765 291.665 90.7319 283.678C70.5904 274.234 59.883 185.175 89.8998 133.53C126.06 71.3152 213.139 77.4762 246.937 135.891Z" fill="#EBC136"/>
<path opacity="0.15" d="M888.507 431.947C862.621 412.727 837.462 374.18 863.926 335.528C866.654 331.543 892.434 295.123 939.6 286.62C997.048 276.262 1017.11 319.78 1081.84 315.683C1151.94 311.246 1183.66 256.712 1219.2 261.753C1261.23 267.713 1281.76 353.166 1217.71 408.631C1140.55 475.449 958.112 483.627 888.507 431.947Z" fill="#EBC136"/>
<path opacity="0.15" d="M814.922 398.538C836.564 379.513 859.249 342.904 841.967 309.187C840.185 305.71 823.248 273.989 787.43 268.962C743.805 262.84 724.654 303.687 674.868 303.695C620.953 303.704 600.92 255.808 572.979 262.46C539.939 270.327 516.942 349.444 561.931 396.321C616.129 452.792 756.728 449.695 814.922 398.538Z" fill="#8047F8"/>
<path opacity="0.15" d="M862.472 140.004C903.019 150.666 946.079 170.465 915.336 187.257C912.167 188.989 881.993 204.762 816.11 206.009C735.863 207.528 699.181 185.67 607.369 183.784C507.942 181.742 472.601 205.767 420.852 201.269C359.659 195.95 314.602 154.145 396 131.591C494.058 104.42 753.443 111.335 862.472 140.004Z" fill="#8047F8"/>
<path opacity="0.15" d="M195.139 381.866C214.225 359.714 234.35 317.381 219.454 278.978C217.918 275.018 203.31 238.899 171.98 233.685C133.82 227.335 116.761 274.475 73.1632 275.25C25.9491 276.089 8.74424 221.467 -15.7709 229.526C-44.7595 239.056 -65.4579 330.145 -26.3915 383.214C20.6708 447.144 143.816 441.431 195.139 381.866Z" fill="#8047F8"/>
</g>
<defs>
<filter id="filter0_f_212_16580" x="-160" y="-161" width="1760" height="864" filterUnits="userSpaceOnUse" color-interpolation-filters="sRGB">
<feFlood flood-opacity="0" result="BackgroundImageFix"/>
<feBlend mode="normal" in="SourceGraphic" in2="BackgroundImageFix" result="shape"/>
<feGaussianBlur stdDeviation="80" result="effect1_foregroundBlur_212_16580"/>
</filter>
<clipPath id="clip0_212_16580">
<rect width="1440" height="544" fill="white" transform="translate(0 -1)"/>
</clipPath>
</defs>
</svg>
